# xmcd
#
# Track frame offsets:
#	150
#	18914
#	46225
#	66489
#	87588
#	107131
#	133874
#	148631
#	171544
#	192149
#	212278
#	232456
#	253288
#	274046
#
# Disc length: 3950 seconds
#
# Revision: 2
# Processed by: cddbd v1.5.2PL0 Copyright (c) Steve Scherf et al.
# Submitted via: EZCDAudioConverter 8.0.2.1
#
DISCID=db0f6c0e
DTITLE=Various Artist - Nhạc Khiêu Vũ Collection 6. Mùa Thu Cali
DYEAR=2004
DGENRE=World Pop
TTITLE0=Thế Sơn - Granada
TTITLE1=Như Quỳnh - Hai kỷ niệm một chuyến đi
TTITLE2=Hợp Ca Thúy Nga Paris - Hoa soan bên thềm cũ
TTITLE3=Thu Phương - Thu
TTITLE4=Thủy Tiên - Anh cho em mùa xuân
TTITLE5=Thư Lê - Mái tóc dạ hương
TTITLE6=Thu Phương - Mua Thu Cali
TTITLE7=Thế Sơn - Mưa chiều phố nhỏ
TTITLE8=Ngọc Hạ - Tiếng hát học trò
TTITLE9=Lương Tùng Quang, Như Loan - Đón xuân
TTITLE10=Tam Ðoan, Thế Sơn - Biết nói gì đây
TTITLE11=Trần Thu Hà - Khúc hát thanh xuân
TTITLE12=Hồ lệ Thu - Kiếp cầm ca
TTITLE13=Thư Lê - Xin còn gọi tên nhau
EXTD=
EXTT0=
EXTT1=
EXTT2=
EXTT3=
EXTT4=
EXTT5=
EXTT6=
EXTT7=
EXTT8=
EXTT9=
EXTT10=
EXTT11=
EXTT12=
EXTT13=
PLAYORDER=
